M48
;GenerationSoftware,Autodesk,EAGLE,9.6.2*%
;CreationDate,2026-05-03T15:49:29Z*%
FMAT,2
ICI,OFF
METRIC,TZ,000.000
T9C0.457
T8C0.813
T7C0.830
T6C1.016
T5C1.100
T4C1.118
T3C1.230
T2C1.321
T1C2.794
%
G90
M71
T1
X15240Y91440
T2
X7620Y91440
X22860Y91440
T3
X34361Y93414
X31821Y93414
X49082Y93230
X46542Y93230
X44002Y93230
X36901Y93414
T4
X22961Y32405
X22961Y34945
X22961Y37485
X22961Y40025
X22961Y42565
X51073Y42925
X51073Y40385
X61729Y62607
X51073Y37845
X51073Y35305
X51073Y32765
X51073Y30225
X58693Y40385
X51569Y62607
X51073Y27685
X58693Y27685
X58693Y32765
X15341Y24785
X58693Y35305
X58693Y37845
X58693Y42925
X15093Y69595
X25253Y69595
X37920Y53000
X48080Y53000
X58693Y30225
X15341Y42565
X15341Y40025
X15341Y37485
X15341Y34945
X15341Y32405
X15341Y29865
X15341Y27325
X22961Y24785
X22961Y27325
X22961Y29865
T5
X18120Y50916
X57293Y93890
X20660Y50916
X15580Y50916
X7782Y73334
X57293Y88810
X7782Y68254
T6
X26356Y74683
X26356Y84843
T7
X60592Y67378
X52972Y67378
X52972Y69918
X52972Y74998
X52972Y77538
X52972Y80078
X52972Y82618
X52972Y72458
X60592Y69918
X60592Y72458
X60592Y74998
X60592Y77538
X60592Y80078
X60592Y82618
T8
X7092Y50799
X35259Y44777
X45419Y44777
X48143Y25145
X37983Y25145
X36021Y24634
X25861Y24634
X2029Y40864
X12189Y40864
X9326Y25872
X2565Y31028
X35979Y27296
X25819Y27296
X24620Y45721
X14460Y45721
X35399Y41090
X45559Y41090
X51414Y50739
X61574Y50739
X51414Y56479
X61574Y56479
X12725Y31028
X4740Y34614
X4740Y37154
X11430Y82550
X13970Y82550
X3810Y82550
X6350Y82550
X10242Y34677
X10242Y37217
X6786Y25872
X30327Y32430
X27787Y32430
X47493Y79457
X47493Y81997
X46441Y72632
X46441Y70092
X41483Y79482
X41483Y82022
X42802Y86482
X40262Y86482
X48707Y86311
X46167Y86311
X45766Y29777
X35606Y29777
X45725Y37556
X35565Y37556
X2096Y44314
X12256Y44314
X48060Y76577
X37900Y76577
X51447Y53585
X50097Y66348
X50097Y76508
X51505Y59393
X61665Y59393
X61607Y53585
X29405Y44304
X37744Y67369
X27584Y67369
X32961Y53442
X35501Y53442
X27203Y53277
X29743Y53277
X29405Y39224
X29405Y41764
X27785Y70370
X37945Y70370
X37748Y55599
X47908Y55599
X48068Y58768
X37908Y58768
X38381Y62893
X40921Y62893
X9632Y50799
X4552Y50799
T9
X31000Y50000
X47000Y50500
X32000Y49000
X27000Y61000
X21500Y61000
X10000Y62500
X45500Y51500
X49000Y50000
X55000Y78500
X49500Y83500
M30