G04 EAGLE Gerber RS-274X export*
G75*
%MOMM*%
%FSLAX34Y34*%
%LPD*%
%INSoldermask Top*%
%IPPOS*%
%AMOC8*
5,1,8,0,0,1.08239X$1,22.5*%
G01*
%ADD10P,1.951982X8X112.500000*%
%ADD11P,1.951982X8X22.500000*%
%ADD12P,1.951982X8X202.500000*%
%ADD13P,1.951982X8X292.500000*%
%ADD14C,1.524000*%
%ADD15C,1.879600*%
%ADD16C,2.743200*%
%ADD17C,2.997200*%
%ADD18C,1.727200*%
%ADD19R,1.853200X1.853200*%
%ADD20C,1.853200*%
%ADD21R,2.053200X2.053200*%
%ADD22C,2.053200*%
%ADD23P,1.649562X8X22.500000*%
%ADD24P,1.649562X8X202.500000*%
%ADD25P,1.649562X8X112.500000*%
%ADD26C,1.853200*%
%ADD27R,1.541200X1.541200*%
%ADD28C,1.541200*%
%ADD29R,1.879600X1.879600*%
%ADD30R,0.803200X2.403200*%
%ADD31R,3.403200X1.803200*%
%ADD32C,1.066800*%


D10*
X47401Y346141D03*
X47401Y371541D03*
D11*
X114300Y825500D03*
X139700Y825500D03*
X38100Y825500D03*
X63500Y825500D03*
D10*
X102422Y346774D03*
X102422Y372174D03*
D12*
X93261Y258722D03*
X67861Y258722D03*
X303273Y324302D03*
X277873Y324302D03*
D10*
X474934Y794573D03*
X474934Y819973D03*
D13*
X464406Y726316D03*
X464406Y700916D03*
D10*
X414830Y794824D03*
X414830Y820224D03*
D12*
X428020Y864819D03*
X402620Y864819D03*
X487065Y863107D03*
X461665Y863107D03*
D14*
X464269Y297769D02*
X451061Y297769D01*
X362669Y297769D02*
X349461Y297769D01*
X450642Y375557D02*
X463850Y375557D01*
X362250Y375557D02*
X349042Y375557D01*
D15*
X515694Y626072D03*
X617294Y626072D03*
D16*
X76200Y901700D02*
X76200Y927100D01*
X228600Y927100D02*
X228600Y901700D01*
D17*
X152400Y914400D03*
D18*
X255943Y746829D02*
X271183Y746829D01*
X271183Y848429D02*
X255943Y848429D01*
D19*
X77818Y682537D03*
D20*
X77818Y733337D03*
D19*
X572930Y888096D03*
D20*
X572930Y938896D03*
D21*
X490817Y932297D03*
D22*
X465417Y932297D03*
X440017Y932297D03*
D21*
X369014Y934141D03*
D22*
X343614Y934141D03*
X318214Y934141D03*
D23*
X20958Y443139D03*
X122558Y443139D03*
D24*
X480596Y765769D03*
X378996Y765769D03*
D23*
X514472Y535851D03*
X616072Y535851D03*
D25*
X500973Y663484D03*
X500973Y765084D03*
D23*
X515054Y593930D03*
X616654Y593930D03*
D14*
X300657Y443043D02*
X287449Y443043D01*
X287449Y392243D02*
X300657Y392243D01*
X300657Y417643D02*
X287449Y417643D01*
X96319Y501391D02*
X96319Y514599D01*
X45519Y514599D02*
X45519Y501391D01*
X70919Y501391D02*
X70919Y514599D01*
D23*
X352585Y447772D03*
X454185Y447772D03*
D24*
X481427Y251455D03*
X379827Y251455D03*
X360210Y246342D03*
X258610Y246342D03*
D23*
X20287Y408643D03*
X121887Y408643D03*
D24*
X127252Y310276D03*
X25652Y310276D03*
X359791Y272959D03*
X258191Y272959D03*
X246205Y457213D03*
X144605Y457213D03*
D23*
X353987Y410903D03*
X455587Y410903D03*
X514139Y507391D03*
X615739Y507391D03*
X514137Y564791D03*
X615737Y564791D03*
D26*
X155801Y517411D02*
X155801Y500911D01*
X181201Y500911D02*
X181201Y517411D01*
X206601Y517411D02*
X206601Y500911D01*
D27*
X529717Y826181D03*
D28*
X529717Y800781D03*
X529717Y775381D03*
X529717Y749981D03*
X529717Y724581D03*
X529717Y699181D03*
X529717Y673781D03*
X605917Y673781D03*
X605917Y699181D03*
X605917Y724581D03*
X605917Y749981D03*
X605917Y775381D03*
X605917Y800781D03*
X605917Y826181D03*
D29*
X153406Y425651D03*
D15*
X153406Y400251D03*
X153406Y374851D03*
X153406Y349451D03*
X153406Y324051D03*
X153406Y298651D03*
X153406Y273251D03*
X153406Y247851D03*
X229606Y247851D03*
X229606Y273251D03*
X229606Y298651D03*
X229606Y324051D03*
X229606Y349451D03*
X229606Y374851D03*
X229606Y400251D03*
X229606Y425651D03*
D29*
X510733Y429252D03*
D15*
X510733Y403852D03*
X510733Y378452D03*
X510733Y353052D03*
X510733Y327652D03*
X510733Y302252D03*
X510733Y276852D03*
X586933Y276852D03*
X586933Y302252D03*
X586933Y327652D03*
X586933Y353052D03*
X586933Y378452D03*
X586933Y403852D03*
X586933Y429252D03*
D30*
X313670Y581256D03*
X313670Y633256D03*
X300970Y581256D03*
X326370Y581256D03*
X339070Y581256D03*
X300970Y633256D03*
X326370Y633256D03*
X339070Y633256D03*
D31*
X200769Y658897D03*
X200769Y569897D03*
D24*
X377436Y673689D03*
X275836Y673689D03*
D11*
X329608Y534419D03*
X355008Y534419D03*
X272029Y532773D03*
X297429Y532773D03*
D15*
X150932Y695950D03*
X252532Y695950D03*
D23*
X277848Y703699D03*
X379448Y703699D03*
X377480Y555991D03*
X479080Y555991D03*
D24*
X480677Y587682D03*
X379077Y587682D03*
D11*
X383809Y628932D03*
X409209Y628932D03*
D15*
X379200Y530000D03*
X480800Y530000D03*
D32*
X320000Y490000D03*
X100000Y625000D03*
X215000Y610000D03*
X270000Y610000D03*
X470000Y505000D03*
X310000Y500000D03*
X495000Y835000D03*
X550000Y785000D03*
X490000Y500000D03*
X455000Y515000D03*
M02*
